<svg width="41" height="40" viewBox="0 0 41 40" fill="none" xmlns="http://www.w3.org/2000/svg">
<g clip-path="url(#clip0_335_198)">
<path d="M20.6725 1.03494e-05C21.3275 1.03494e-05 21.9725 0.0425103 22.5725 0.14251C23.1636 0.218658 23.7468 0.347504 24.315 0.52751C24.8816 0.69751 25.4433 0.916677 26 1.18501C26.5425 1.44251 27.1 1.75751 27.6575 2.10001C28.6 2.70001 29.5275 3.18501 30.4725 3.57251C32.3323 4.31861 34.2998 4.76173 36.3 4.88501C37.3116 4.96001 38.3591 4.99834 39.4425 5.00001V15C39.4425 16.8983 39.2 18.7033 38.715 20.415C38.249 22.1055 37.587 23.7357 36.7425 25.2725C35.9016 26.8072 34.9064 28.2522 33.7725 29.585C32.6218 30.9488 31.3753 32.2287 30.0425 33.415C28.6908 34.6033 27.2691 35.7095 25.785 36.7275C24.2983 37.7608 22.8033 38.7133 21.3 39.585L20.7 39.9425L20.1 39.585C18.5578 38.6925 17.0516 37.7392 15.585 36.7275C14.0929 35.7204 12.6705 34.6137 11.3275 33.415C9.99544 32.2286 8.74978 30.9487 7.59995 29.585C6.46983 28.2459 5.47028 26.8018 4.61495 25.2725C3.7856 23.7286 3.12432 22.1001 2.64245 20.415C2.1576 18.6512 1.91703 16.8292 1.92745 15V5.00001C3.01078 4.99834 4.05912 4.96001 5.07245 4.88501C6.07176 4.81708 7.06455 4.67418 8.04245 4.45751C8.99995 4.24251 9.95745 3.95751 10.9 3.57251C11.8777 3.17728 12.8153 2.68921 13.7 2.11501C14.8 1.40001 15.915 0.87251 17.015 0.52501C18.1997 0.162234 19.4335 -0.014865 20.6725 1.03494e-05ZM36.9275 7.45751C35.0351 7.36489 33.1604 7.04852 31.3425 6.51501C29.5348 5.97438 27.8127 5.18068 26.2275 4.15751C25.4049 3.61903 24.5125 3.19592 23.575 2.90001C22.6379 2.61741 21.6637 2.47751 20.685 2.48501C19.699 2.479 18.7175 2.61885 17.7725 2.90001C16.8338 3.1871 15.9426 3.61081 15.1275 4.15751C13.5389 5.18524 11.8125 5.98235 9.99995 6.52501C8.22828 7.04001 6.37078 7.35501 4.42745 7.47001V15.0125C4.42745 16.6675 4.64245 18.2575 5.07245 19.7825C5.5109 21.2966 6.11453 22.7579 6.87245 24.14C7.63977 25.5364 8.54423 26.8529 9.57245 28.07C10.615 29.2975 11.7275 30.44 12.9275 31.525C14.1275 32.61 15.385 33.615 16.7 34.54C18.0283 35.4667 19.3566 36.3142 20.685 37.0825C22.0449 36.2922 23.3703 35.4439 24.6575 34.54C25.9827 33.6175 27.247 32.6104 28.4425 31.525C29.6425 30.44 30.7575 29.2975 31.8 28.07C32.8282 26.8529 33.7326 25.5364 34.5 24.14C35.2541 22.7594 35.8487 21.2975 36.2725 19.7825C36.716 18.2316 36.9365 16.6255 36.9275 15.0125V7.45751Z" fill="#5FE0F1"/>
<path fill-rule="evenodd" clip-rule="evenodd" d="M29.9924 11.7725L28.8924 10.8275L27.8774 10.915L16.9774 23.785L13.2649 18.485L12.2649 18.315L11.1074 19.1425L10.9349 20.1425L15.7074 26.9575L16.2499 27.2575L17.3924 27.3275L17.9774 27.0725L30.0649 12.785L29.9924 11.7725Z" fill="#5FE0F1"/>
</g>
<defs>
<clipPath id="clip0_335_198">
<rect width="40" height="40" fill="white" transform="translate(0.5)"/>
</clipPath>
</defs>
</svg>
