<svg width="118" height="22" viewBox="0 0 118 22" fill="none" xmlns="http://www.w3.org/2000/svg">
<path d="M11 1.375L7.87188 7.71375L0.880005 8.72437L5.94 13.6606L4.74375 20.625L11 17.3387L17.2563 20.625L16.06 13.6606L21.12 8.73125L14.1281 7.71375L11 1.375Z" fill="#EFCF9D"/>
<path d="M35 1.375L31.8719 7.71375L24.88 8.72437L29.94 13.6606L28.7438 20.625L35 17.3387L41.2563 20.625L40.06 13.6606L45.12 8.73125L38.1281 7.71375L35 1.375Z" fill="#EFCF9D"/>
<path d="M59 1.375L55.8719 7.71375L48.88 8.72437L53.94 13.6606L52.7438 20.625L59 17.3387L65.2563 20.625L64.06 13.6606L69.12 8.73125L62.1281 7.71375L59 1.375Z" fill="#EFCF9D"/>
<path d="M83 1.375L79.8719 7.71375L72.88 8.72437L77.94 13.6606L76.7438 20.625L83 17.3387L89.2563 20.625L88.06 13.6606L93.12 8.73125L86.1281 7.71375L83 1.375Z" fill="#EFCF9D"/>
<path d="M107 1.375L103.872 7.71375L96.88 8.72437L101.94 13.6606L100.744 20.625L107 17.3387L113.256 20.625L112.06 13.6606L117.12 8.73125L110.128 7.71375L107 1.375Z" fill="#EFCF9D"/>
</svg>
